<?xml version="1.0" encoding="utf-8"?>
<!-- Generator: Adobe Illustrator 24.1.3, SVG Export Plug-In . SVG Version: 6.00 Build 0)  -->
<svg version="1.1" id="Layer_1" xmlns="http://www.w3.org/2000/svg" xmlns:xlink="http://www.w3.org/1999/xlink" x="0px" y="0px"
	 viewBox="0 0 62.2 82.9" style="enable-background:new 0 0 62.2 82.9;" xml:space="preserve">
<style type="text/css">
	.st0{fill:#003556;}
</style>
<path id="Path_103" class="st0" d="M51.8,0H10.4C4.6,0,0,4.6,0,10.4c0,0,0,0,0,0v51.8c0,5.7,4.6,10.4,10.4,10.4l0,0h41.5
	c5.7,0,10.4-4.6,10.4-10.4V10.4C62.2,4.6,57.5,0,51.8,0z M10.4,57c0-2.9,2.3-5.2,5.2-5.2s5.2,2.3,5.2,5.2s-2.3,5.2-5.2,5.2l0,0
	C12.7,62.2,10.4,59.9,10.4,57L10.4,57z M41.4,57c0-2.9,2.3-5.2,5.2-5.2c2.9,0,5.2,2.3,5.2,5.2c0,2.9-2.3,5.2-5.2,5.2c0,0,0,0,0,0
	l0,0C43.8,62.2,41.5,59.9,41.4,57z M57,36.3H5.2V10.4c0-2.9,2.3-5.2,5.2-5.2h13c0,1.4,1.1,2.6,2.5,2.6h10.4c1.4,0,2.6-1.2,2.6-2.6
	l0,0h13c2.8,0,5.1,2.3,5.2,5.2V36.3z"/>
<path id="Path_104" class="st0" d="M7.8,80.3c0,1.4,1.2,2.6,2.6,2.6h5.2c1.4,0,2.6-1.2,2.6-2.6v-5.2H7.8V80.3z"/>
<path id="Path_105" class="st0" d="M44,80.3c0,1.4,1.1,2.6,2.6,2.6c0,0,0,0,0,0h5.2c1.4,0,2.6-1.1,2.6-2.5c0,0,0,0,0,0v-5.2H44V80.3
	z"/>
</svg>
